<svg version="1.1" xmlns="http://www.w3.org/2000/svg" style="display: block;" viewBox="0 0 1444 1024" width="361" height="256" preserveAspectRatio="none">
<defs>
	<linearGradient id="Gradient1" gradientUnits="userSpaceOnUse" x1="836.816" y1="353.929" x2="1133.95" y2="350.032">
		<stop class="stop0" offset="0" stop-opacity="1" stop-color="rgb(10,155,174)"/>
		<stop class="stop1" offset="1" stop-opacity="1" stop-color="rgb(15,113,213)"/>
	</linearGradient>
	<linearGradient id="Gradient2" gradientUnits="userSpaceOnUse" x1="297.709" y1="352.548" x2="857.336" y2="354.913">
		<stop class="stop0" offset="0" stop-opacity="1" stop-color="rgb(0,238,107)"/>
		<stop class="stop1" offset="1" stop-opacity="1" stop-color="rgb(11,152,177)"/>
	</linearGradient>
</defs>
<path transform="translate(0,0)" fill="rgb(247,246,246)" d="M 0 0 L 1444 0 L 1444 1024 L 0 1024 L 0 0 z"/>
<path transform="translate(0,0)" fill="url(#Gradient2)" d="M 296.863 47.2044 C 299.482 42.6146 303.406 36.9412 308.498 34.8742 C 313.264 32.9395 319.167 32.6924 324.276 32.5313 C 341.379 31.992 553.488 31.5902 558.942 34.5266 C 563.977 37.2378 568.97 47.417 571.532 52.514 C 576.644 62.6865 580.635 73.5266 585.138 83.9828 C 596.615 110.629 607.328 137.3 617.984 164.268 C 625.511 183.315 634.411 201.828 642.324 220.722 C 648.144 234.62 652.984 248.873 658.652 262.819 C 665.425 279.486 692.297 350.43 708.114 356.66 C 713.026 358.594 719.475 356.916 724.077 354.881 C 729.062 352.677 733.363 349.97 736.208 345.21 C 746.012 328.81 751.861 307.977 759.654 290.338 C 775.774 253.848 790.52 217.02 805.756 180.187 C 817.264 152.369 829.438 125.022 840.062 96.8247 C 846.178 81.6228 858.631 44.2558 871.274 35.5897 C 877.184 31.539 917.412 32.7459 927.14 32.7488 L 1006.44 32.7899 L 1072.86 32.8363 C 1090 32.7097 1124.95 27.0054 1131.36 45.5884 C 1133.64 52.2054 1130.9 60.6668 1128.55 67.0479 C 1114.56 105.93 1096.63 143.172 1080.67 181.266 L 986.768 406.01 C 980.126 421.886 974.528 438.442 967.587 454.145 C 937.68 521.796 910.609 590.635 882.215 658.926 C 876.573 672.495 860.761 677.277 847.478 675.083 C 835.654 676.18 807.69 675.421 794.635 675.429 L 688.711 675.5 L 553.56 675.751 C 535.227 675.792 487.973 677.078 472.911 673.409 C 468.914 668.414 465.156 663.172 462.453 657.343 C 442.794 614.96 424.97 571.725 407.518 528.394 C 401.283 512.911 395.023 501.185 404.312 484.981 C 415.61 479.258 455.814 480.626 469.909 480.806 C 539.612 481.691 610.021 479.612 679.654 481.243 C 687.093 466.026 692.634 453.974 698.587 438.151 C 702.369 428.096 709.695 406.484 714.422 398.011 L 544.379 397.85 C 517.742 397.88 491.086 398.025 464.454 397.772 C 457.651 397.183 445.96 398.186 441.05 392.429 C 425.037 373.653 418.298 344.26 408.955 322.004 L 367.503 222.487 C 350.217 182.109 331.697 142.442 316.573 101.178 C 310.423 84.4013 297.921 65.0497 296.863 47.2044 z"/>
<path transform="translate(0,0)" fill="url(#Gradient1)" d="M 840.062 96.8247 C 846.178 81.6228 858.631 44.2558 871.274 35.5897 C 877.184 31.539 917.412 32.7459 927.14 32.7488 L 1006.44 32.7899 L 1072.86 32.8363 C 1090 32.7097 1124.95 27.0054 1131.36 45.5884 C 1133.64 52.2054 1130.9 60.6668 1128.55 67.0479 C 1114.56 105.93 1096.63 143.172 1080.67 181.266 L 986.768 406.01 C 980.126 421.886 974.528 438.442 967.587 454.145 C 937.68 521.796 910.609 590.635 882.215 658.926 C 876.573 672.495 860.761 677.277 847.478 675.083 L 841.679 673.201 C 844.663 673.086 852.901 673.205 854.941 671.865 C 853.384 668.923 853.622 667.925 853.991 664.635 L 854.109 663.636 L 848.465 659.852 C 852.319 645.721 850.399 640.017 851.153 626.542 C 852.521 602.1 851.438 578.321 851.823 553.986 C 852.129 534.613 856.13 511.848 855.562 492.516 C 854.936 471.203 851.56 449.54 851.728 427.986 C 851.863 410.672 854.826 395.025 855.119 377.606 C 855.744 340.405 852.562 304.146 851.647 267.032 C 850.871 255.489 853.296 242.73 852.762 231.346 C 851.349 201.261 853.782 170.95 851.755 140.971 C 851.227 133.163 843.489 121.723 845.006 113.283 C 848.201 109.865 849.225 109.363 848.676 104.616 C 841.441 107.468 845.973 102.49 840.062 96.8247 z"/>
<path transform="translate(0,0)" fill="rgb(6,31,35)" d="M 742.478 782.352 C 775.892 784.163 813.185 779.71 846.098 785.638 C 857.866 788.322 876.865 793.949 882.865 805.324 C 895.503 829.286 881.759 845.9 862.534 857.475 C 889.639 867.215 896.547 892.502 888.003 918.01 C 869.251 945.631 823.893 942.998 795.002 942.993 L 742.152 942.956 C 741.636 900.105 742.426 857.095 742.078 814.228 C 741.993 803.733 741.879 792.792 742.478 782.352 z"/>
<path transform="translate(0,0)" fill="rgb(247,246,246)" d="M 795.091 881.116 C 803.933 881.005 835.461 877.705 836.179 890.557 C 836.31 892.912 834.853 899.54 833.687 901.666 C 820.145 904.379 808.84 904.1 795.148 904.06 C 795.028 896.483 795.105 888.712 795.091 881.116 z"/>
<path transform="translate(0,0)" fill="rgb(247,246,246)" d="M 795.039 821.942 C 806.311 821.771 820.297 821.303 831.256 823.518 C 832.737 831.608 833.565 833.521 830.452 840.909 C 823.167 844.213 803.592 843.773 795.209 843.746 C 794.959 836.718 795.074 829.027 795.039 821.942 z"/>
<path transform="translate(0,0)" fill="rgb(6,31,35)" d="M 1210.65 772.412 C 1221.41 773.393 1247.64 772.689 1260.06 772.886 C 1260.2 798.216 1260.1 823.546 1259.76 848.874 C 1267.4 841.326 1284.54 823.493 1292.38 818.183 C 1309.91 817.207 1330.74 818.086 1349.04 817.644 C 1335.48 834.29 1314.52 849.203 1304.47 866.992 C 1309.19 880.274 1327.4 907.51 1335.57 921.483 C 1340.33 929.217 1343.75 934.801 1347.59 942.974 L 1286.28 942.927 C 1283.2 933.573 1268.42 908.927 1261.63 901.291 C 1259.23 914.686 1259.86 929.111 1259.94 942.764 C 1243.66 943.201 1226.15 942.844 1209.78 942.792 C 1210.09 904.308 1210.17 865.823 1210.02 827.338 C 1210.06 810.607 1209.59 788.892 1210.65 772.412 z"/>
<path transform="translate(0,0)" fill="rgb(6,31,35)" d="M 304.069 816.444 C 324.002 815.549 344.755 821.87 360.451 835.096 C 382.868 853.983 383.188 901.236 363.864 922.454 C 350.712 936.897 329.157 943.385 309.657 944.148 C 288.351 944.526 271.056 940.16 254.025 926.041 C 230.162 906.229 229.222 862.159 249.437 839.551 C 263.871 823.409 283.238 817.621 304.069 816.444 z"/>
<path transform="translate(0,0)" fill="rgb(247,246,246)" d="M 301.149 857.166 C 325.384 855.337 329.038 875.628 322.438 895.769 C 320.668 901.17 317.328 902.668 312.191 904.615 C 290.604 907.172 284.957 890.782 289.32 871.413 C 290.929 864.27 294.766 860.559 301.149 857.166 z"/>
<path transform="translate(0,0)" fill="rgb(6,31,35)" d="M 1133.73 816.289 C 1136.11 816.155 1138.49 816.064 1140.88 816.016 C 1153.2 815.802 1163.17 819.289 1172.03 828.051 C 1177.56 833.443 1181.58 840.187 1183.7 847.615 C 1187.39 860.93 1186.12 924.101 1186.28 942.577 C 1168.89 942.93 1151.49 943.016 1134.1 942.836 C 1133.93 920.864 1135.08 898.739 1133.3 876.84 C 1132.86 871.383 1131.09 864.261 1125.12 862.552 C 1112.35 858.891 1106.81 865.125 1104.16 876.971 C 1102.19 896.098 1102.94 923.042 1102.99 942.786 C 1085.71 943.059 1068.06 942.94 1050.75 943.005 C 1050.12 901.187 1050.32 859.36 1051.34 817.55 C 1067.06 818.49 1087.22 817.963 1103.25 817.873 L 1102.2 836.042 C 1111.38 826.436 1120.3 818.532 1133.73 816.289 z"/>
<path transform="translate(0,0)" fill="rgb(6,31,35)" d="M 471.409 817.283 C 481.719 818.615 511.226 817.93 522.998 817.905 L 522.957 875.5 L 522.904 942.767 C 505.877 943.154 488.119 942.842 471.035 942.771 L 471.079 927.232 C 452.334 948.51 423.076 952.755 402.863 931.038 C 397.78 925.657 394.149 919.071 392.313 911.9 C 388.553 897.151 390.413 835.274 390.993 817.411 C 401.011 818.649 430.831 817.93 442.356 817.888 C 443.12 842.087 441.593 866.818 443.353 891.103 L 443.982 891.828 C 447.373 895.692 452.934 900.481 458.391 900.572 C 460.794 900.612 462.951 899.654 464.653 897.983 C 474.496 888.319 470.899 833.251 471.409 817.283 z"/>
<path transform="translate(0,0)" fill="rgb(6,31,35)" d="M 961.614 816.414 C 986.423 813.691 1025.09 823.046 1028.46 850.153 C 1031.82 877.092 1030.02 915.351 1029.97 942.861 C 1012.65 943.027 995.325 942.94 978.005 942.599 C 978.065 938.629 977.946 935.855 977.631 931.893 C 975.913 931.51 949.891 958.834 914.371 936.554 C 901.098 925.025 897.329 913.288 901.003 895.717 C 905.29 875.214 931.053 868.68 949.089 868.019 C 955.459 867.786 973.829 868.962 978.35 866.286 L 978.671 864.284 C 973.268 853.12 962.985 854.387 952.794 855.114 C 941.032 855.953 930.883 858.226 919.848 862.274 C 916.551 850.688 913.552 840.152 908.159 829.36 C 927.225 820.327 940.823 817.936 961.614 816.414 z"/>
<path transform="translate(0,0)" fill="rgb(247,246,246)" d="M 956.727 891.457 C 963.437 890.857 972.31 890.798 979.194 890.557 C 978.343 900.797 978.976 905.586 969.732 911.521 C 961.553 913.364 952.213 914.872 948.94 905.302 C 946.516 898.215 950.131 893.183 956.727 891.457 z"/>
<path transform="translate(0,0)" fill="rgb(6,31,35)" d="M 195.32 783.035 C 213.971 782.189 232.629 782.722 251.27 783.546 C 240.447 797.17 226.441 829.71 216.832 847.445 C 210.892 859.797 200.32 876.42 195.519 888.89 C 191.109 900.343 192.683 928.835 192.831 942.654 C 176.058 943.305 156.721 942.872 139.756 942.891 C 139.497 932.205 140.787 904.752 138.635 895.809 C 135.356 882.188 119.566 857.116 112.636 843.651 C 106.481 831.691 99.3103 818.98 93.5216 806.569 C 89.9571 798.928 84.9628 791.226 83.2381 782.996 C 99.8526 782.25 119.28 782.682 136.102 782.657 C 137.711 795.505 158.881 830.858 166.516 842.922 C 173.378 831.216 193.719 794.809 195.32 783.035 z"/>
<path transform="translate(0,0)" fill="rgb(6,31,35)" d="M 634.635 816.277 C 636.254 816.196 637.009 816.393 638.598 816.616 C 641.112 821.017 639.901 853.098 639.887 861.112 C 624.113 861.652 617.288 861.883 604.623 871.625 C 600.491 888.246 601.73 924.137 601.805 942.859 C 592.475 942.93 557.706 943.732 550.982 942.342 C 549.372 939.481 549.806 935.163 549.838 931.75 C 549.753 893.585 549.89 855.42 550.248 817.257 C 558.089 818.546 591.962 817.904 601.886 817.853 C 601.684 823.727 601.741 830.063 601.684 835.979 C 612.659 823.831 618.092 818.395 634.635 816.277 z"/>
<path transform="translate(0,0)" fill="rgb(6,31,35)" d="M 653.113 856.005 C 670.403 857.02 699.83 856.117 717.963 856.066 L 717.925 888.801 C 696.357 888.558 674.786 888.597 653.219 888.921 C 652.979 878.2 653.133 866.774 653.113 856.005 z"/>
</svg>